<?xml version="1.0" encoding="UTF-8"?>
<svg viewBox="0 0 199 223" version="1.1" xmlns="http://www.w3.org/2000/svg" xmlns:xlink="http://www.w3.org/1999/xlink">
    <title>LOGO</title>
    <g id="LOGO" stroke="none" stroke-width="1" fill-rule="evenodd">
        <path d="M141.55,165.444 C142.043333,165.444 142.413333,165.320667 142.66,165.074 C142.906667,164.827333 143.03,164.506667 143.03,164.112 L143.03,154.492 L143.03,154.492 C143.03,150.94 143.005333,147.363333 142.956,143.762 C142.906667,140.160667 142.882,136.633333 142.882,133.18 L142.882,123.708 L142.882,123.708 C142.882,117.097333 142.956,110.906 143.104,105.134 C143.252,99.362 143.424667,94.3546667 143.622,90.112 C143.819333,85.5733333 144.016667,81.306 144.214,77.31 C144.411333,73.314 144.855333,70.576 145.546,69.096 C146.73,66.2346667 148.432,64.1133333 150.652,62.732 C152.872,61.3506667 155.807333,60.4133333 159.458,59.92 L159.458,58.44 L122.754,58.44 L122.754,59.92 C127.49,60.6106667 131.116,61.8193333 133.632,63.546 C136.148,65.2726667 137.899333,67.5173333 138.886,70.28 C139.675333,72.352 140.119333,75.1886667 140.218,78.79 C140.316667,82.3913333 140.366,86.1653333 140.366,90.112 L140.366,140.432 L70.214,58.44 L40.17,58.44 L40.17,59.92 C41.7486667,60.1173333 43.4013333,60.438 45.128,60.882 C46.8546667,61.326 48.458,62.066 49.938,63.102 C51.418,64.138 52.7006667,65.5686667 53.786,67.394 C54.8713333,69.2193333 55.562,71.5626667 55.858,74.424 C55.9566667,77.2853333 56.006,79.7026667 56.006,81.676 L56.006,99.732 L56.006,99.732 C56.006,106.342667 55.9566667,112.534 55.858,118.306 C55.7593333,124.078 55.6113333,129.085333 55.414,133.328 C55.2166667,138.952 54.9206667,143.786667 54.526,147.832 C54.1313333,151.877333 53.2433333,154.936 51.862,157.008 C50.4806667,159.178667 48.606,160.732667 46.238,161.67 C43.87,162.607333 41.502,163.224 39.134,163.52 L39.134,165 L75.542,165 L75.542,163.52 C71.4966667,163.026667 68.3146667,162.212667 65.996,161.078 C63.6773333,159.943333 61.9753333,158.241333 60.89,155.972 C59.9033333,153.998667 59.2866667,150.989333 59.04,146.944 C58.7933333,142.898667 58.67,138.36 58.67,133.328 L58.67,70.872 C65.3793333,78.3706667 71.7433333,85.6226667 77.762,92.628 C83.7806667,99.6333333 89.9226667,106.811333 96.188,114.162 C102.453333,121.512667 109.039333,129.233333 115.946,137.324 C122.852667,145.414667 130.499333,154.294667 138.886,163.964 C139.872667,164.950667 140.760667,165.444 141.55,165.444 Z" id="letter" fill-rule="nonzero"></path>
        <path d="M59.516524,47.7861829 L59.6709819,47.9729351 C59.942533,47.9759854 60.2188724,47.985007 60.5,48 C62.5,51.3333333 65.3333333,54.5 69,57.5 C69.88,58.22 70.768342,58.8744532 71.7245099,59.5644541 L72.0863684,59.8250682 C77.0783939,63.4149636 84.0472053,68.2704545 101,88 C114.352049,103.539022 127.282321,120.760782 139.790817,139.665279 L141,141.5 L141,165.5 C123.647388,149.19333 109.492987,135.568661 98.5367956,124.625995 L97.3326024,123.42118 C88.5983689,114.66681 81.9875015,107.693083 77.5,102.5 C68.5087781,92.095064 62.8323641,82.525459 57,70 C56.9403935,69.8719905 56.8809958,69.7449641 56.8218069,69.6189209 C56.529815,70.0077611 56.2619494,70.3967025 56.016524,70.7861829 C55.5734515,67.0857372 54.4067848,64.5857372 52.516524,63.2861829 C50.8817038,62.162244 47.544152,61.1377039 42.5038686,60.2125627 L42.207524,60.1581829 L42.3364513,60.1387154 C43.2531179,59.9720487 44.3131422,59.5212045 45.516524,58.7861829 C47.7259331,57.4366831 48.3178916,54.8517735 50.1491161,52.5822545 C50.8384943,51.528005 51.6215525,50.6676201 52.5,50 C54.0385944,48.8306682 55.9826281,48.1669501 58.3321011,48.0088457 C58.7189832,47.9244415 59.1137249,47.8501979 59.516524,47.7861829 Z M40.016524,59.7861829 C40.7130724,59.8979428 41.3830156,60.0112558 42.0263536,60.1261219 L42.207524,60.1581829 L42.1274576,60.1721323 C41.3704785,60.2761645 40.7161401,60.1767322 40.1644422,59.8738356 L40.016524,59.7861829 Z M13.367544,0.242028597 C16.275405,8.02596464 20.8960021,13.251266 27.2293354,15.9179327 C36.7293354,19.9179327 47.2435801,18.0656172 51.9917988,25.2703514 C55.157278,30.0735074 56.0730827,35.8320925 54.739213,42.5461065 C51.9670517,43.1316829 49.6234156,44.2279557 47.7083045,45.8349247 C45.7931933,47.4418937 44.3066073,49.559559 43.2485463,52.1879206 C30.3547953,50.823261 20.6690217,45.2438135 14.1912255,35.4495782 C7.71342936,25.6553429 7.43886885,13.919493 13.367544,0.242028597 Z" id="brush" fill="#000000"></path>
    </g>
</svg>